FFmpeg version SVN-r25716, Copyright (c) 2000-2010 the FFmpeg developers  built on Nov 10 2010 12:23:18 with gcc 4.1.2 20080704 (Red Hat 4.1.2-48)  configuration: --enable-libmp3lame --enable-shared --disable-mmx --arch=x86_64  libavutil     50.33. 0 / 50.33. 0  libavcore      0.12. 1 /  0.12. 1  libavcodec    52.94. 4 / 52.94. 4  libavformat   52.84. 0 / 52.84. 0  libavdevice   52. 2. 2 / 52. 2. 2  libavfilter    1.59. 0 /  1.59. 0  libswscale     0.12. 0 /  0.12. 0Input #0, avi, from '/RAID10/data/converted_video_files/47567.avi':  Duration: 00:00:01.76, start: 0.000000, bitrate: 31552 kb/s    Stream #0.0: Video: msvideo1, rgb555le, 1024x1024, 30 tbr, 30 tbn, 30 tbc[buffer @ 0x13524c20] w:1024 h:1024 pixfmt:rgb555le[ffsink @ 0x1355efa0] auto-inserting filter 'auto-inserted scaler 0' between the filter 'src' and the filter 'out'[scale @ 0x1355f2c0] w:1024 h:1024 fmt:rgb555le -> w:1024 h:1024 fmt:yuv420p flags:0x4Output #0, flv, to '/RAID10/data/converted_video_files/47567.flv':  Metadata:    encoder         : Lavf52.84.0    Stream #0.0: Video: flv, yuv420p, 1024x1024, q=2-31, 600 kb/s, 1k tbn, 24 tbcStream mapping:  Stream #0.0 -> #0.0Press [q] to stop encodingframe=    6 fps=  0 q=6.5 size=     364kB time=0.25 bitrate=11939.3kbits/s dup=0 drop=1    frame=   11 fps=  9 q=20.8 size=     390kB time=0.46 bitrate=6976.4kbits/s dup=0 drop=2    frame=   16 fps= 10 q=31.0 size=     422kB time=0.67 bitrate=5178.2kbits/s dup=0 drop=4    frame=   26 fps= 12 q=31.0 size=     458kB time=1.08 bitrate=3460.7kbits/s dup=0 drop=6    frame=   36 fps= 14 q=31.0 size=     467kB time=1.50 bitrate=2550.7kbits/s dup=0 drop=9    frame=   43 fps= 14 q=31.0 Lsize=     498kB time=1.79 bitrate=2278.7kbits/s dup=0 drop=10    video:498kB audio:0kB global headers:0kB muxing overhead 0.176244%